<svg xmlns="http://www.w3.org/2000/svg" xmlns:xlink="http://www.w3.org/1999/xlink" width="1112" height="429" version="1.1" viewBox="0 0 1112 429"><title>stripe-migration-stack</title><g id="stripe-migration-stack" fill="none" fill-rule="evenodd" stroke="none" stroke-width="1"><rect id="Rectangle" width="321" height="64" x="368" y="47" fill="#EDC978" stroke="#FFF" stroke-width="3"/><rect id="Rectangle" width="321" height="64" x="368" y="111" fill="#EA9A9A" stroke="#FFF" stroke-width="3"/><rect id="Rectangle" width="321" height="63" x="368" y="175" fill="#94D1CF" stroke="#FFF" stroke-width="3"/><rect id="Rectangle" width="321" height="64" x="368" y="238" fill="#A6C8A2" stroke="#FFF" stroke-width="3"/><rect id="Rectangle" width="321" height="64" x="368" y="302" fill="#E6E6E6" stroke="#FFF" stroke-width="3"/><text id="2020-07-02" fill="#767676" font-family="HelveticaNeue-Bold, Helvetica Neue" font-size="17" font-weight="bold"><tspan x="589" y="352">2020-07-02</tspan></text><text id="2020-07-19" fill="#767676" font-family="HelveticaNeue-Bold, Helvetica Neue" font-size="17" font-weight="bold"><tspan x="589" y="288">2020-07-19</tspan></text><text id="2020-08-03" fill="#767676" font-family="HelveticaNeue-Bold, Helvetica Neue" font-size="17" font-weight="bold"><tspan x="589" y="228">2020-08-03</tspan></text><text id="2020-08-25" fill="#767676" font-family="HelveticaNeue-Bold, Helvetica Neue" font-size="17" font-weight="bold"><tspan x="589" y="166">2020-08-25</tspan></text><text id="2020-09-16" fill="#767676" font-family="HelveticaNeue-Bold, Helvetica Neue" font-size="17" font-weight="bold"><tspan x="589" y="101">2020-09-16</tspan></text><line id="Line-19" x1="238" x2="492.5" y1="277" y2="276.5" stroke="#6A6A6A" stroke-linecap="square" stroke-width="2"/><line id="Line-20" x1="492" x2="492" y1="276" y2="75" stroke="#6A6A6A" stroke-linecap="square" stroke-width="2"/><line id="Line-21" x1="492.5" x2="814" y1="74.5" y2="75" stroke="#6A6A6A" stroke-linecap="square" stroke-width="2"/><g id="Group-2" transform="translate(77.000000, 222.000000)"><rect id="Rectangle" width="160" height="112" x="0" y="0" stroke="#979797" stroke-width="3" rx="6"/><line id="Line-5" x1=".97" x2="160.03" y1="22.5" y2="22.5" stroke="#979797" stroke-linecap="square"/><circle id="Oval" cx="11.5" cy="11.5" r="4.5" fill="#D8D8D8"/><circle id="Oval" cx="23.5" cy="11.5" r="4.5" fill="#D8D8D8"/><circle id="Oval" cx="33.5" cy="11.5" r="4.5" fill="#D8D8D8"/><rect id="Rectangle" width="19" height="19" x="10" y="33" fill="#E8E8E8" rx="5"/><rect id="Rectangle" width="19" height="19" x="10" y="61" fill="#E8E8E8" rx="5"/><rect id="Rectangle" width="19" height="19" x="10" y="92" fill="#E8E8E8" rx="5"/><rect id="Rectangle" width="25" height="5" x="40" y="32" fill="#F3F3F3"/><rect id="Rectangle" width="75" height="5" x="40" y="40" fill="#F3F3F3"/><rect id="Rectangle" width="25" height="5" x="40" y="92" fill="#F3F3F3"/><rect id="Rectangle" width="25" height="5" x="40" y="60" fill="#F3F3F3"/><rect id="Rectangle" width="75" height="5" x="40" y="70" fill="#F3F3F3"/></g><text id="…" fill="#767676" font-family="HelveticaNeue-Bold, Helvetica Neue" font-size="17" font-weight="bold"><tspan x="528" y="392">…</tspan></text><text id="API-request-from-cli" fill="#404040" font-family="Merriweather-Regular, Merriweather" font-size="24" font-weight="normal"><tspan x="52" y="171">API request from </tspan> <tspan x="52" y="202">client on old version</tspan></text><rect id="Rectangle" width="241" height="236" x="814" y="34" fill="#F6F6F6" stroke="#979797"/><text id="Main-application-log" fill="#404040" font-family="Merriweather-Regular, Merriweather" font-size="24" font-weight="normal"><tspan x="843" y="94">Main </tspan> <tspan x="843" y="125">application </tspan> <tspan x="843" y="156">logic</tspan></text></g></svg>