<svg xmlns="http://www.w3.org/2000/svg" xmlns:xlink="http://www.w3.org/1999/xlink" width="1112" height="468" version="1.1" viewBox="0 0 1112 468"><title>lens-graph</title><g id="lens-graph" fill="none" fill-rule="evenodd" stroke="none" stroke-width="1"><circle id="Oval" cx="554.5" cy="224.5" r="184.5" fill="#F0F0F0"/><ellipse id="Oval" cx="257" cy="224.5" fill="#E8BB54" rx="30" ry="30.5"/><ellipse id="Oval" cx="644.5" cy="238.5" fill="#89B784" rx="21.5" ry="22.5"/><ellipse id="Oval" cx="557.5" cy="238.5" fill="#7BC6C4" rx="21.5" ry="22.5"/><circle id="Oval" cx="488.5" cy="101.5" r="22.5" fill="#E3E3E3" stroke="#C2C2C2"/><ellipse id="Oval" cx="593" cy="145.5" fill="#E3E3E3" stroke="#C2C2C2" rx="22" ry="21.5"/><ellipse id="Oval" cx="587.5" cy="331.5" fill="#E3E3E3" stroke="#C2C2C2" rx="22.5" ry="21.5"/><ellipse id="Oval" cx="465.5" cy="238.5" fill="#E68686" rx="21.5" ry="22.5"/><ellipse id="Oval" cx="853" cy="221" fill="#80A1C5" rx="31" ry="30"/><line id="Line-8" x1="286.952" x2="443.048" y1="225" y2="233" stroke="#979797" stroke-linecap="square" stroke-width="3"/><line id="Line-8" x1="666.951" x2="821.049" y1="240.045" y2="220.955" stroke="#979797" stroke-linecap="square" stroke-width="3"/><line id="Line-14" x1="578.41" x2="623.06" y1="239.5" y2="235" stroke="#979797" stroke-linecap="square" stroke-width="3"/><line id="Line-14" x1="487.442" x2="535.038" y1="237.25" y2="240.167" stroke="#979797" stroke-linecap="square" stroke-width="3"/><line id="Line-15" x1="644.045" x2="603.955" y1="218.048" y2="160.952" stroke="#C2C2C2" stroke-linecap="square"/><line id="Line-15" x1="577" x2="508.958" y1="131" y2="104.964" stroke="#C2C2C2" stroke-linecap="square"/><line id="Line-16" x1="554.962" x2="578.038" y1="261.931" y2="314.069" stroke="#C2C2C2" stroke-linecap="square"/><line id="Line-17" x1="547.941" x2="578.059" y1="218.048" y2="160.952" stroke="#C2C2C2" stroke-linecap="square"/><text id="Each-client-reads-an" fill="#404040" font-family="Merriweather-Regular, Merriweather" font-size="24" font-weight="normal"><tspan x="62" y="93">Each client reads and </tspan> <tspan x="62" y="124">writes a document in </tspan> <tspan x="62" y="155">its native local schema</tspan></text><text id="Each-edge-represents" fill="#404040" font-family="Merriweather-Regular, Merriweather" font-size="24" font-weight="normal"><tspan x="739" y="378">Each edge represents a </tspan> <tspan x="739" y="409">lens between two schemas</tspan></text><path id="Line-18" fill="#979797" fill-rule="nonzero" d="M181.470908,166.793492 L181.838708,167.1322 L219.836,202.124 L222.545778,199.181761 L226.1178,208.588708 L216.449029,205.802157 L219.158,202.859 L181.161292,167.8678 L180.793492,167.529092 L181.470908,166.793492 Z"/><path id="Line-18" fill="#979797" fill-rule="nonzero" d="M603.165574,240.128302 L612.530524,243.809024 L609.556,246.484 L727.246698,377.290574 L727.581124,377.662271 L726.837729,378.331124 L726.503302,377.959426 L608.813,247.153 L605.839967,249.828695 L603.165574,240.128302 Z"/></g></svg>