<?xml version="1.0" encoding="UTF-8"?>
<svg width="1112px" height="429px" viewBox="0 0 1112 429" version="1.1" xmlns="http://www.w3.org/2000/svg" xmlns:xlink="http://www.w3.org/1999/xlink">
    <title>stripe-migration-stack</title>
    <g id="stripe-migration-stack" stroke="none" stroke-width="1" fill="none" fill-rule="evenodd">
        <rect id="Rectangle" stroke="#FFFFFF" stroke-width="3" fill="#EDC978" x="368" y="47" width="321" height="64"></rect>
        <rect id="Rectangle" stroke="#FFFFFF" stroke-width="3" fill="#EA9A9A" x="368" y="111" width="321" height="64"></rect>
        <rect id="Rectangle" stroke="#FFFFFF" stroke-width="3" fill="#94D1CF" x="368" y="175" width="321" height="63"></rect>
        <rect id="Rectangle" stroke="#FFFFFF" stroke-width="3" fill="#A6C8A2" x="368" y="238" width="321" height="64"></rect>
        <rect id="Rectangle" stroke="#FFFFFF" stroke-width="3" fill="#E6E6E6" x="368" y="302" width="321" height="64"></rect>
        <text id="2020-07-02" font-family="HelveticaNeue-Bold, Helvetica Neue" font-size="17" font-weight="bold" fill="#767676">
            <tspan x="589" y="352">2020-07-02</tspan>
        </text>
        <text id="2020-07-19" font-family="HelveticaNeue-Bold, Helvetica Neue" font-size="17" font-weight="bold" fill="#767676">
            <tspan x="589" y="288">2020-07-19</tspan>
        </text>
        <text id="2020-08-03" font-family="HelveticaNeue-Bold, Helvetica Neue" font-size="17" font-weight="bold" fill="#767676">
            <tspan x="589" y="228">2020-08-03</tspan>
        </text>
        <text id="2020-08-25" font-family="HelveticaNeue-Bold, Helvetica Neue" font-size="17" font-weight="bold" fill="#767676">
            <tspan x="589" y="166">2020-08-25</tspan>
        </text>
        <text id="2020-09-16" font-family="HelveticaNeue-Bold, Helvetica Neue" font-size="17" font-weight="bold" fill="#767676">
            <tspan x="589" y="101">2020-09-16</tspan>
        </text>
        <line x1="238" y1="277" x2="492.5" y2="276.5" id="Line-19" stroke="#6A6A6A" stroke-width="2" stroke-linecap="square"></line>
        <line x1="492" y1="276" x2="492" y2="75" id="Line-20" stroke="#6A6A6A" stroke-width="2" stroke-linecap="square"></line>
        <line x1="492.5" y1="74.5" x2="814" y2="75" id="Line-21" stroke="#6A6A6A" stroke-width="2" stroke-linecap="square"></line>
        <g id="Group-2" transform="translate(77.000000, 222.000000)">
            <rect id="Rectangle" stroke="#979797" stroke-width="3" x="0" y="0" width="160" height="112" rx="6"></rect>
            <line x1="0.969879518" y1="22.5" x2="160.03012" y2="22.5" id="Line-5" stroke="#979797" stroke-linecap="square"></line>
            <circle id="Oval" fill="#D8D8D8" cx="11.5" cy="11.5" r="4.5"></circle>
            <circle id="Oval" fill="#D8D8D8" cx="23.5" cy="11.5" r="4.5"></circle>
            <circle id="Oval" fill="#D8D8D8" cx="33.5" cy="11.5" r="4.5"></circle>
            <rect id="Rectangle" fill="#E8E8E8" x="10" y="33" width="19" height="19" rx="5"></rect>
            <rect id="Rectangle" fill="#E8E8E8" x="10" y="61" width="19" height="19" rx="5"></rect>
            <rect id="Rectangle" fill="#E8E8E8" x="10" y="92" width="19" height="19" rx="5"></rect>
            <rect id="Rectangle" fill="#F3F3F3" x="40" y="32" width="25" height="5"></rect>
            <rect id="Rectangle" fill="#F3F3F3" x="40" y="40" width="75" height="5"></rect>
            <rect id="Rectangle" fill="#F3F3F3" x="40" y="92" width="25" height="5"></rect>
            <rect id="Rectangle" fill="#F3F3F3" x="40" y="60" width="25" height="5"></rect>
            <rect id="Rectangle" fill="#F3F3F3" x="40" y="70" width="75" height="5"></rect>
        </g>
        <text id="…" font-family="HelveticaNeue-Bold, Helvetica Neue" font-size="17" font-weight="bold" fill="#767676">
            <tspan x="528" y="392">…</tspan>
        </text>
        <text id="API-request-from-cli" font-family="Merriweather-Regular, Merriweather" font-size="24" font-weight="normal" fill="#404040">
            <tspan x="52" y="171">API request from </tspan>
            <tspan x="52" y="202">client on old version</tspan>
        </text>
        <rect id="Rectangle" stroke="#979797" fill="#F6F6F6" x="814" y="34" width="241" height="236"></rect>
        <text id="Main-application-log" font-family="Merriweather-Regular, Merriweather" font-size="24" font-weight="normal" fill="#404040">
            <tspan x="843" y="94">Main </tspan>
            <tspan x="843" y="125">application </tspan>
            <tspan x="843" y="156">logic</tspan>
        </text>
    </g>
</svg>